<svg version="1.1" id="Layer_1" xmlns="http://www.w3.org/2000/svg" xmlns:xlink="http://www.w3.org/1999/xlink" x="0px" y="0px"
	 width="100%" viewBox="0 0 1254 1254" enable-background="new 0 0 1254 1254" xml:space="preserve">
<path fill="#010101" opacity="1.000000" stroke="none" 
	d="
M615.000000,1255.000000 
	C410.000000,1255.000000 205.500000,1255.000000 1.000000,1255.000000 
	C1.000000,837.000000 1.000000,419.000000 1.000000,1.000000 
	C419.000000,1.000000 837.000000,1.000000 1255.000000,1.000000 
	C1255.000000,419.000000 1255.000000,837.000000 1255.000000,1255.000000 
	C1041.833374,1255.000000 828.666687,1255.000000 615.000000,1255.000000 
M511.810181,472.241089 
	C454.886719,577.009094 397.963287,681.777100 340.778564,787.026001 
	C361.091522,787.026001 380.621918,786.333252 400.069672,787.300964 
	C410.738678,787.831909 415.966675,784.509827 421.108521,774.841797 
	C458.371094,704.778015 496.484253,635.166565 534.340393,565.418518 
	C535.075317,564.064453 535.958740,562.790955 537.133179,560.899719 
	C556.005554,596.229370 574.561890,630.779663 592.941223,665.423767 
	C613.729431,704.608643 634.388916,743.862000 654.995422,783.142822 
	C656.494934,786.001221 658.058777,787.283997 661.453308,787.136169 
	C668.606201,786.824646 675.782410,787.050781 682.949036,787.051392 
	C702.581726,787.052917 722.214355,787.051941 742.866333,787.051941 
	C739.069580,781.558411 739.393433,774.149658 732.213562,772.152771 
	C724.856201,770.106384 721.342102,764.896606 717.464783,758.690002 
	C708.986755,745.118713 706.828552,730.899170 706.868103,715.121216 
	C707.248413,563.456543 707.077209,411.790497 707.064026,260.124817 
	C707.063843,258.217102 707.064026,256.309387 707.064026,254.476959 
	C698.274414,254.476959 690.355774,254.476959 681.923218,254.476959 
	C681.923218,400.263428 681.923218,545.742981 681.923218,692.642517 
	C633.535828,602.423279 585.857056,513.525391 537.758667,423.844940 
	C528.831970,440.485901 520.490295,456.036285 511.810181,472.241089 
M921.651978,459.585449 
	C925.923767,458.173676 922.250061,456.261444 921.577087,455.369598 
	C908.340515,437.826385 894.937256,420.409058 881.595886,402.944794 
	C876.286438,395.994446 871.044067,388.992798 865.906128,382.193085 
	C885.690063,358.182709 904.981873,334.769531 924.851562,310.655090 
	C855.623474,310.655090 787.764038,310.655090 719.624451,310.655090 
	C719.624451,360.398346 719.624451,409.752472 719.624451,459.606293 
	C786.942566,459.606293 853.878601,459.606293 921.651978,459.585449 
M576.497742,787.480347 
	C589.847778,787.480347 603.197876,787.480347 617.782410,787.480347 
	C590.452393,737.051025 563.873535,688.007874 536.838318,638.122559 
	C509.362854,688.229858 482.436859,737.335144 454.940582,787.480347 
	C495.925629,787.480347 535.722229,787.480347 576.497742,787.480347 
M299.886658,910.188965 
	C299.886658,918.103516 299.886658,926.018127 299.886658,934.204041 
	C320.423340,934.204041 340.375977,934.443909 360.318024,934.088257 
	C368.525665,933.941833 375.453400,930.023743 378.076813,921.888916 
	C379.761749,916.664185 379.828430,910.815674 379.989990,905.228577 
	C380.169098,899.035522 377.033539,894.270081 372.894287,891.774719 
	C374.890625,887.070618 377.378937,883.088379 378.268707,878.776306 
	C381.646484,862.406616 373.632507,849.847107 358.682617,849.295593 
	C339.267395,848.579285 319.805756,849.120605 299.893646,849.120605 
	C299.893646,869.388062 299.893646,889.315552 299.886658,910.188965 
M809.616394,901.500793 
	C809.616394,895.334595 809.616394,889.168396 809.616394,883.002258 
	C810.029541,882.970337 810.442688,882.938416 810.855835,882.906494 
	C819.847839,895.134705 828.839905,907.362976 838.121094,919.984497 
	C847.611938,907.084839 856.591003,894.880859 865.570068,882.676819 
	C865.910400,882.809082 866.250793,882.941345 866.591125,883.073608 
	C866.591125,899.974731 866.591125,916.875854 866.591125,933.937988 
	C872.627930,933.937988 878.170471,933.937988 883.640503,933.937988 
	C883.640503,905.533508 883.640503,877.485718 883.640503,849.191956 
	C880.407227,849.191956 877.540894,849.542419 874.794617,849.117188 
	C869.479736,848.294373 866.325317,850.573547 863.389221,854.842468 
	C855.311646,866.586914 846.805176,878.036316 838.236694,889.923889 
	C837.194885,888.652283 836.322876,887.703308 835.579163,886.662598 
	C827.359070,875.159607 819.212097,863.603638 810.883972,852.179565 
	C809.872681,850.792297 807.981384,849.363464 806.382812,849.217957 
	C801.948425,848.814270 797.453308,849.077942 792.749023,849.077942 
	C792.749023,877.603210 792.749023,905.793762 792.749023,933.871094 
	C798.541809,933.871094 803.939514,933.871094 809.617737,933.871094 
	C809.617737,923.135742 809.617737,912.818115 809.616394,901.500793 
M400.679047,851.071777 
	C400.679047,878.669495 400.679047,906.267273 400.679047,933.973145 
	C425.718262,933.973145 450.263489,933.973145 474.720276,933.973145 
	C474.720276,928.430420 474.720276,923.207520 474.720276,917.685242 
	C455.537415,917.685242 436.767273,917.685242 417.939026,917.685242 
	C417.939026,911.644226 417.939026,905.933044 417.939026,899.719360 
	C436.029419,899.719360 453.782043,899.719360 471.753510,899.719360 
	C471.753510,894.164307 471.753510,889.119995 471.753510,883.533752 
	C453.596405,883.533752 435.721344,883.533752 417.847717,883.533752 
	C417.847717,877.392639 417.847717,871.799622 417.847717,865.566650 
	C437.022095,865.566650 455.917816,865.566650 474.849487,865.566650 
	C474.849487,859.815247 474.849487,854.714294 474.849487,849.574768 
	C474.141968,849.393188 473.680145,849.171509 473.218048,849.170959 
	C450.067047,849.141541 426.915955,849.117920 403.765045,849.163513 
	C402.772034,849.165527 401.780334,849.825867 400.679047,851.071777 
M572.452148,885.911438 
	C572.575439,881.922974 572.786072,877.934875 572.806641,873.945923 
	C572.891052,857.576721 564.392212,849.157166 547.857422,849.153076 
	C531.697876,849.149048 515.538330,849.139465 499.378784,849.151855 
	C497.951874,849.152954 496.525116,849.299377 495.180115,849.373779 
	C495.180115,877.793640 495.180115,905.854614 495.180115,933.979858 
	C500.815216,933.979858 506.089630,933.979858 511.831238,933.979858 
	C511.831238,911.133484 511.831238,888.547729 511.831238,865.744141 
	C524.403442,865.744141 536.511108,865.601196 548.608765,865.885193 
	C550.620667,865.932434 553.452942,867.334045 554.418152,868.981506 
	C557.536438,874.304016 557.216370,880.283203 554.992432,885.794983 
	C553.114990,890.447876 548.415649,890.215454 544.208618,890.223267 
	C535.433105,890.239563 526.657532,890.228149 517.755249,890.228149 
	C517.755249,895.806458 517.755249,900.845764 517.755249,906.126648 
	C519.271118,906.126648 520.450439,906.285583 521.572327,906.099243 
	C526.524475,905.276550 529.864624,907.367859 533.015808,911.143555 
	C538.987366,918.298340 545.425110,925.067017 551.754456,931.917236 
	C552.690613,932.930420 554.072632,934.151550 555.282410,934.189453 
	C562.204102,934.406494 569.136047,934.294861 576.957397,934.294861 
	C567.948914,924.405029 559.661072,915.306458 550.819153,905.599487 
	C563.235474,904.217590 570.866272,898.809326 572.452148,885.911438 
M909.759766,934.288025 
	C913.524597,934.288025 917.289368,934.288025 921.610474,934.288025 
	C921.610474,924.499329 921.610474,915.434692 921.610474,906.199402 
	C928.352539,906.199402 934.514282,906.196655 940.675964,906.200195 
	C946.840576,906.203735 953.006775,906.305664 959.169556,906.201660 
	C972.331787,905.979431 980.418518,899.291382 981.685181,886.932434 
	C982.309814,880.838074 982.263123,874.578186 981.665283,868.476990 
	C980.658508,858.203796 974.184204,851.713745 963.825134,849.885803 
	C960.746887,849.342712 957.567871,849.187317 954.433777,849.174744 
	C937.817810,849.108032 921.201477,849.143433 904.303223,849.143433 
	C904.303223,877.635071 904.303223,905.715942 904.303223,934.082031 
	C905.900574,934.154968 907.374451,934.222229 909.759766,934.288025 
M106.981621,929.529663 
	C110.298317,930.969055 113.500755,932.895630 116.964516,933.707825 
	C120.296043,934.489075 123.897675,934.224426 127.381119,934.233704 
	C143.153793,934.275757 158.926636,934.252136 174.862518,934.252136 
	C174.862518,928.570374 174.862518,923.377136 174.862518,918.331238 
	C174.354355,918.125305 174.200104,918.008179 174.045731,918.007996 
	C158.397797,917.988892 142.749741,918.012695 127.101967,917.953491 
	C119.127502,917.923340 116.291939,915.092285 116.224617,907.097534 
	C116.144707,897.607910 116.170319,888.117126 116.188515,878.626953 
	C116.208817,868.041748 119.000000,865.401062 129.529709,865.460022 
	C144.631210,865.544617 159.733536,865.481628 174.865967,865.481628 
	C174.865967,859.774841 174.865967,854.572754 174.865967,849.129822 
	C156.501129,849.129822 138.519196,848.791870 120.557121,849.243164 
	C107.576996,849.569336 99.524460,858.594116 99.455910,871.661133 
	C99.385162,885.146973 99.394310,898.633423 99.413879,912.119507 
	C99.423454,918.715149 101.291641,924.584290 106.981621,929.529663 
M608.661682,889.501038 
	C608.664368,886.003723 608.675354,882.506409 608.668335,879.009094 
	C608.646118,867.980225 611.144897,865.496765 622.106506,865.516296 
	C637.049805,865.542847 651.993286,865.522888 667.146851,865.522888 
	C667.146851,859.855225 667.146851,854.613037 667.146851,849.141235 
	C649.001160,849.141235 631.179810,848.752808 613.384827,849.270630 
	C600.392578,849.648865 592.006104,859.130066 591.933899,872.140137 
	C591.861755,885.129395 591.865845,898.119385 591.908875,911.108826 
	C591.956055,925.352051 600.791992,934.222961 614.948120,934.274536 
	C624.440247,934.309204 633.932617,934.262024 643.424866,934.256836 
	C651.366760,934.252502 659.308716,934.256042 667.319580,934.256042 
	C667.319580,928.552551 667.319580,923.455444 667.319580,917.959229 
	C665.409180,917.959229 663.777893,917.960510 662.146545,917.959106 
	C647.991272,917.946716 633.835693,917.978699 619.680786,917.903198 
	C611.939941,917.861938 608.803467,914.756714 608.638794,906.986328 
	C608.522400,901.493713 608.644714,895.996033 608.661682,889.501038 
M718.554382,897.188232 
	C722.145569,889.793152 725.736694,882.398071 729.658325,874.322388 
	C730.439819,875.832092 730.822998,876.533997 731.172180,877.252441 
	C739.763245,894.926758 748.325684,912.615234 756.983704,930.256714 
	C757.721863,931.760742 759.017273,934.028687 760.182129,934.110291 
	C765.897705,934.511108 771.656677,934.292236 778.080200,934.292236 
	C764.807922,906.826477 751.981934,880.299622 739.177429,853.762329 
	C737.950806,851.220093 737.135742,848.339844 733.259460,849.152771 
	C728.862854,850.074829 723.752319,846.976257 720.600708,853.647766 
	C709.088013,878.018555 696.928894,902.083740 685.034546,926.274536 
	C683.844116,928.695496 682.797180,931.187012 681.398438,934.275574 
	C686.917236,934.275574 691.572510,934.058899 696.195740,934.351074 
	C699.332214,934.549194 700.919312,933.447998 702.248230,930.630493 
	C707.432495,919.639343 712.875549,908.770264 718.554382,897.188232 
M1060.690186,855.058350 
	C1047.742188,881.237976 1034.794067,907.417603 1021.450806,934.396301 
	C1026.474121,934.396301 1030.791016,933.988770 1034.995361,934.502930 
	C1039.890625,935.101624 1041.884644,932.808044 1043.827148,928.741089 
	C1052.535889,910.507446 1061.590332,892.438904 1070.792480,873.757812 
	C1071.496216,875.116272 1071.958252,875.940247 1072.359497,876.792847 
	C1080.713867,894.543518 1089.027222,912.313721 1097.466309,930.023987 
	C1098.253662,931.676453 1099.734619,934.099548 1101.053345,934.207214 
	C1106.738647,934.671387 1112.483643,934.405579 1118.999634,934.405579 
	C1117.634644,931.146790 1116.839966,928.974426 1115.838989,926.901672 
	C1104.119995,902.634766 1092.084106,878.514465 1080.807129,854.044312 
	C1077.538696,846.952087 1072.193604,849.948914 1067.484619,849.063293 
	C1063.104126,848.239502 1062.318481,851.574768 1060.690186,855.058350 
M227.928177,872.534241 
	C222.530151,865.563782 217.172989,858.560913 211.690796,851.657288 
	C210.850647,850.599365 209.456818,849.338623 208.279663,849.297363 
	C201.744827,849.068604 195.197845,849.187744 187.832596,849.187744 
	C200.160507,864.623413 211.777740,879.358887 223.645828,893.889526 
	C226.449921,897.322571 227.740799,900.730469 227.607605,905.178711 
	C227.320572,914.764404 227.519394,924.364685 227.519394,933.931274 
	C233.616165,933.931274 239.026306,933.931274 244.777206,933.931274 
	C244.777206,928.916565 245.219849,924.214478 244.694473,919.623169 
	C243.098434,905.675293 245.884430,893.448914 256.770264,883.668823 
	C259.697693,881.038818 261.793976,877.484436 264.276154,874.357849 
	C270.740326,866.215454 277.206909,858.074890 284.302734,849.140015 
	C277.359558,849.140015 271.575409,848.938049 265.820282,849.257996 
	C263.994690,849.359497 261.677582,850.392334 260.553894,851.782104 
	C252.396561,861.870972 244.486908,872.160095 236.190369,882.781006 
	C233.530136,879.506653 230.935074,876.312561 227.928177,872.534241 
M1136.087646,934.437622 
	C1140.993042,934.437622 1145.898438,934.437622 1150.947754,934.437622 
	C1150.947754,905.563293 1150.947754,877.523315 1150.947754,849.359131 
	C1144.944336,849.359131 1139.384888,849.359131 1133.944580,849.359131 
	C1133.697021,849.978455 1133.471436,850.280151 1133.470703,850.582336 
	C1133.406860,877.541626 1133.340210,904.501099 1133.392456,931.460205 
	C1133.394287,932.439636 1134.576172,933.416809 1136.087646,934.437622 
M1003.796021,927.818115 
	C1004.484924,922.874146 1003.843323,918.469055 998.664795,916.157593 
	C993.551392,913.875183 988.017151,915.651611 985.845093,920.146423 
	C983.512451,924.973511 985.253418,931.592102 989.407593,933.689453 
	C994.780884,936.402405 1000.487427,934.318787 1003.796021,927.818115 
z"/>
<path fill="#FCFCFC" opacity="1.000000" stroke="none" 
	d="
M511.979431,471.913879 
	C520.490295,456.036285 528.831970,440.485901 537.758667,423.844940 
	C585.857056,513.525391 633.535828,602.423279 681.923218,692.642517 
	C681.923218,545.742981 681.923218,400.263428 681.923218,254.476959 
	C690.355774,254.476959 698.274414,254.476959 707.064026,254.476959 
	C707.064026,256.309387 707.063843,258.217102 707.064026,260.124817 
	C707.077209,411.790497 707.248413,563.456543 706.868103,715.121216 
	C706.828552,730.899170 708.986755,745.118713 717.464783,758.690002 
	C721.342102,764.896606 724.856201,770.106384 732.213562,772.152771 
	C739.393433,774.149658 739.069580,781.558411 742.866333,787.051941 
	C722.214355,787.051941 702.581726,787.052917 682.949036,787.051392 
	C675.782410,787.050781 668.606201,786.824646 661.453308,787.136169 
	C658.058777,787.283997 656.494934,786.001221 654.995422,783.142822 
	C634.388916,743.862000 613.729431,704.608643 592.941223,665.423767 
	C574.561890,630.779663 556.005554,596.229370 537.133179,560.899719 
	C535.958740,562.790955 535.075317,564.064453 534.340393,565.418518 
	C496.484253,635.166565 458.371094,704.778015 421.108521,774.841797 
	C415.966675,784.509827 410.738678,787.831909 400.069672,787.300964 
	C380.621918,786.333252 361.091522,787.026001 340.778564,787.026001 
	C397.963287,681.777100 454.886719,577.009094 511.979431,471.913879 
z"/>
<path fill="#0057FB" opacity="1.000000" stroke="none" 
	d="
M921.233276,459.595886 
	C853.878601,459.606293 786.942566,459.606293 719.624451,459.606293 
	C719.624451,409.752472 719.624451,360.398346 719.624451,310.655090 
	C787.764038,310.655090 855.623474,310.655090 924.851562,310.655090 
	C904.981873,334.769531 885.690063,358.182709 865.906128,382.193085 
	C871.044067,388.992798 876.286438,395.994446 881.595886,402.944794 
	C894.937256,420.409058 908.340515,437.826385 921.577087,455.369598 
	C922.250061,456.261444 925.923767,458.173676 921.233276,459.595886 
z"/>
<path fill="#015AFC" opacity="1.000000" stroke="none" 
	d="
M576.008301,787.480347 
	C535.722229,787.480347 495.925629,787.480347 454.940582,787.480347 
	C482.436859,737.335144 509.362854,688.229858 536.838318,638.122559 
	C563.873535,688.007874 590.452393,737.051025 617.782410,787.480347 
	C603.197876,787.480347 589.847778,787.480347 576.008301,787.480347 
z"/>
<path fill="#F7F7F7" opacity="1.000000" stroke="none" 
	d="
M299.890137,909.716003 
	C299.893646,889.315552 299.893646,869.388062 299.893646,849.120605 
	C319.805756,849.120605 339.267395,848.579285 358.682617,849.295593 
	C373.632507,849.847107 381.646484,862.406616 378.268707,878.776306 
	C377.378937,883.088379 374.890625,887.070618 372.894287,891.774719 
	C377.033539,894.270081 380.169098,899.035522 379.989990,905.228577 
	C379.828430,910.815674 379.761749,916.664185 378.076813,921.888916 
	C375.453400,930.023743 368.525665,933.941833 360.318024,934.088257 
	C340.375977,934.443909 320.423340,934.204041 299.886658,934.204041 
	C299.886658,926.018127 299.886658,918.103516 299.890137,909.716003 
M337.499268,865.440552 
	C330.729492,865.440552 323.959747,865.440552 317.087097,865.440552 
	C317.087097,871.824585 317.087097,877.681213 317.087097,883.832703 
	C329.370453,883.832703 341.298553,884.022156 353.216431,883.754761 
	C359.418488,883.615601 362.061188,880.298767 361.950104,874.106628 
	C361.843231,868.148743 359.246796,865.583008 352.936829,865.449768 
	C348.126068,865.348206 343.311310,865.436646 337.499268,865.440552 
M344.493958,899.654419 
	C335.393372,899.654419 326.292786,899.654419 316.996094,899.654419 
	C316.996094,906.070862 316.996094,911.797668 316.996094,917.921143 
	C330.209900,917.921143 343.158417,918.106323 356.097107,917.830383 
	C361.308807,917.719177 363.815155,914.256287 363.818024,908.708069 
	C363.820801,903.352417 361.093262,900.025696 355.975372,899.655212 
	C352.498505,899.403503 348.986694,899.634766 344.493958,899.654419 
z"/>
<path fill="#F7F7F7" opacity="1.000000" stroke="none" 
	d="
M809.617065,902.000610 
	C809.617737,912.818115 809.617737,923.135742 809.617737,933.871094 
	C803.939514,933.871094 798.541809,933.871094 792.749023,933.871094 
	C792.749023,905.793762 792.749023,877.603210 792.749023,849.077942 
	C797.453308,849.077942 801.948425,848.814270 806.382812,849.217957 
	C807.981384,849.363464 809.872681,850.792297 810.883972,852.179565 
	C819.212097,863.603638 827.359070,875.159607 835.579163,886.662598 
	C836.322876,887.703308 837.194885,888.652283 838.236694,889.923889 
	C846.805176,878.036316 855.311646,866.586914 863.389221,854.842468 
	C866.325317,850.573547 869.479736,848.294373 874.794617,849.117188 
	C877.540894,849.542419 880.407227,849.191956 883.640503,849.191956 
	C883.640503,877.485718 883.640503,905.533508 883.640503,933.937988 
	C878.170471,933.937988 872.627930,933.937988 866.591125,933.937988 
	C866.591125,916.875854 866.591125,899.974731 866.591125,883.073608 
	C866.250793,882.941345 865.910400,882.809082 865.570068,882.676819 
	C856.591003,894.880859 847.611938,907.084839 838.121094,919.984497 
	C828.839905,907.362976 819.847839,895.134705 810.855835,882.906494 
	C810.442688,882.938416 810.029541,882.970337 809.616394,883.002258 
	C809.616394,889.168396 809.616394,895.334595 809.617065,902.000610 
z"/>
<path fill="#F7F6F7" opacity="1.000000" stroke="none" 
	d="
M400.733521,850.625671 
	C401.780334,849.825867 402.772034,849.165527 403.765045,849.163513 
	C426.915955,849.117920 450.067047,849.141541 473.218048,849.170959 
	C473.680145,849.171509 474.141968,849.393188 474.849487,849.574768 
	C474.849487,854.714294 474.849487,859.815247 474.849487,865.566650 
	C455.917816,865.566650 437.022095,865.566650 417.847717,865.566650 
	C417.847717,871.799622 417.847717,877.392639 417.847717,883.533752 
	C435.721344,883.533752 453.596405,883.533752 471.753510,883.533752 
	C471.753510,889.119995 471.753510,894.164307 471.753510,899.719360 
	C453.782043,899.719360 436.029419,899.719360 417.939026,899.719360 
	C417.939026,905.933044 417.939026,911.644226 417.939026,917.685242 
	C436.767273,917.685242 455.537415,917.685242 474.720276,917.685242 
	C474.720276,923.207520 474.720276,928.430420 474.720276,933.973145 
	C450.263489,933.973145 425.718262,933.973145 400.679047,933.973145 
	C400.679047,906.267273 400.679047,878.669495 400.733521,850.625671 
z"/>
<path fill="#F6F6F6" opacity="1.000000" stroke="none" 
	d="
M572.409302,886.348633 
	C570.866272,898.809326 563.235474,904.217590 550.819153,905.599487 
	C559.661072,915.306458 567.948914,924.405029 576.957397,934.294861 
	C569.136047,934.294861 562.204102,934.406494 555.282410,934.189453 
	C554.072632,934.151550 552.690613,932.930420 551.754456,931.917236 
	C545.425110,925.067017 538.987366,918.298340 533.015808,911.143555 
	C529.864624,907.367859 526.524475,905.276550 521.572327,906.099243 
	C520.450439,906.285583 519.271118,906.126648 517.755249,906.126648 
	C517.755249,900.845764 517.755249,895.806458 517.755249,890.228149 
	C526.657532,890.228149 535.433105,890.239563 544.208618,890.223267 
	C548.415649,890.215454 553.114990,890.447876 554.992432,885.794983 
	C557.216370,880.283203 557.536438,874.304016 554.418152,868.981506 
	C553.452942,867.334045 550.620667,865.932434 548.608765,865.885193 
	C536.511108,865.601196 524.403442,865.744141 511.831238,865.744141 
	C511.831238,888.547729 511.831238,911.133484 511.831238,933.979858 
	C506.089630,933.979858 500.815216,933.979858 495.180115,933.979858 
	C495.180115,905.854614 495.180115,877.793640 495.180115,849.373779 
	C496.525116,849.299377 497.951874,849.152954 499.378784,849.151855 
	C515.538330,849.139465 531.697876,849.149048 547.857422,849.153076 
	C564.392212,849.157166 572.891052,857.576721 572.806641,873.945923 
	C572.786072,877.934875 572.575439,881.922974 572.409302,886.348633 
z"/>
<path fill="#F7F6F7" opacity="1.000000" stroke="none" 
	d="
M909.304016,934.288757 
	C907.374451,934.222229 905.900574,934.154968 904.303223,934.082031 
	C904.303223,905.715942 904.303223,877.635071 904.303223,849.143433 
	C921.201477,849.143433 937.817810,849.108032 954.433777,849.174744 
	C957.567871,849.187317 960.746887,849.342712 963.825134,849.885803 
	C974.184204,851.713745 980.658508,858.203796 981.665283,868.476990 
	C982.263123,874.578186 982.309814,880.838074 981.685181,886.932434 
	C980.418518,899.291382 972.331787,905.979431 959.169556,906.201660 
	C953.006775,906.305664 946.840576,906.203735 940.675964,906.200195 
	C934.514282,906.196655 928.352539,906.199402 921.610474,906.199402 
	C921.610474,915.434692 921.610474,924.499329 921.610474,934.288025 
	C917.289368,934.288025 913.524597,934.288025 909.304016,934.288757 
M964.882446,870.931641 
	C962.470337,869.217651 960.117920,866.130798 957.635986,866.022888 
	C945.706665,865.504028 933.742310,865.789734 921.510010,865.789734 
	C921.510010,873.938354 921.510010,881.853027 921.510010,890.272827 
	C931.366272,890.272827 940.986328,890.262878 950.606323,890.275085 
	C964.340088,890.292542 967.247314,886.947388 965.418884,873.174316 
	C965.353699,872.683655 965.169250,872.208740 964.882446,870.931641 
z"/>
<path fill="#F7F6F7" opacity="1.000000" stroke="none" 
	d="
M106.702209,929.307007 
	C101.291641,924.584290 99.423454,918.715149 99.413879,912.119507 
	C99.394310,898.633423 99.385162,885.146973 99.455910,871.661133 
	C99.524460,858.594116 107.576996,849.569336 120.557121,849.243164 
	C138.519196,848.791870 156.501129,849.129822 174.865967,849.129822 
	C174.865967,854.572754 174.865967,859.774841 174.865967,865.481628 
	C159.733536,865.481628 144.631210,865.544617 129.529709,865.460022 
	C119.000000,865.401062 116.208817,868.041748 116.188515,878.626953 
	C116.170319,888.117126 116.144707,897.607910 116.224617,907.097534 
	C116.291939,915.092285 119.127502,917.923340 127.101967,917.953491 
	C142.749741,918.012695 158.397797,917.988892 174.045731,918.007996 
	C174.200104,918.008179 174.354355,918.125305 174.862518,918.331238 
	C174.862518,923.377136 174.862518,928.570374 174.862518,934.252136 
	C158.926636,934.252136 143.153793,934.275757 127.381119,934.233704 
	C123.897675,934.224426 120.296043,934.489075 116.964516,933.707825 
	C113.500755,932.895630 110.298317,930.969055 106.702209,929.307007 
z"/>
<path fill="#F6F6F6" opacity="1.000000" stroke="none" 
	d="
M608.661011,890.000854 
	C608.644714,895.996033 608.522400,901.493713 608.638794,906.986328 
	C608.803467,914.756714 611.939941,917.861938 619.680786,917.903198 
	C633.835693,917.978699 647.991272,917.946716 662.146545,917.959106 
	C663.777893,917.960510 665.409180,917.959229 667.319580,917.959229 
	C667.319580,923.455444 667.319580,928.552551 667.319580,934.256042 
	C659.308716,934.256042 651.366760,934.252502 643.424866,934.256836 
	C633.932617,934.262024 624.440247,934.309204 614.948120,934.274536 
	C600.791992,934.222961 591.956055,925.352051 591.908875,911.108826 
	C591.865845,898.119385 591.861755,885.129395 591.933899,872.140137 
	C592.006104,859.130066 600.392578,849.648865 613.384827,849.270630 
	C631.179810,848.752808 649.001160,849.141235 667.146851,849.141235 
	C667.146851,854.613037 667.146851,859.855225 667.146851,865.522888 
	C651.993286,865.522888 637.049805,865.542847 622.106506,865.516296 
	C611.144897,865.496765 608.646118,867.980225 608.668335,879.009094 
	C608.675354,882.506409 608.664368,886.003723 608.661011,890.000854 
z"/>
<path fill="#F6F6F6" opacity="1.000000" stroke="none" 
	d="
M718.388306,897.521973 
	C712.875549,908.770264 707.432495,919.639343 702.248230,930.630493 
	C700.919312,933.447998 699.332214,934.549194 696.195740,934.351074 
	C691.572510,934.058899 686.917236,934.275574 681.398438,934.275574 
	C682.797180,931.187012 683.844116,928.695496 685.034546,926.274536 
	C696.928894,902.083740 709.088013,878.018555 720.600708,853.647766 
	C723.752319,846.976257 728.862854,850.074829 733.259460,849.152771 
	C737.135742,848.339844 737.950806,851.220093 739.177429,853.762329 
	C751.981934,880.299622 764.807922,906.826477 778.080200,934.292236 
	C771.656677,934.292236 765.897705,934.511108 760.182129,934.110291 
	C759.017273,934.028687 757.721863,931.760742 756.983704,930.256714 
	C748.325684,912.615234 739.763245,894.926758 731.172180,877.252441 
	C730.822998,876.533997 730.439819,875.832092 729.658325,874.322388 
	C725.736694,882.398071 722.145569,889.793152 718.388306,897.521973 
z"/>
<path fill="#0257F7" opacity="1.000000" stroke="none" 
	d="
M1060.841187,854.709717 
	C1062.318481,851.574768 1063.104126,848.239502 1067.484619,849.063293 
	C1072.193604,849.948914 1077.538696,846.952087 1080.807129,854.044312 
	C1092.084106,878.514465 1104.119995,902.634766 1115.838989,926.901672 
	C1116.839966,928.974426 1117.634644,931.146790 1118.999634,934.405579 
	C1112.483643,934.405579 1106.738647,934.671387 1101.053345,934.207214 
	C1099.734619,934.099548 1098.253662,931.676453 1097.466309,930.023987 
	C1089.027222,912.313721 1080.713867,894.543518 1072.359497,876.792847 
	C1071.958252,875.940247 1071.496216,875.116272 1070.792480,873.757812 
	C1061.590332,892.438904 1052.535889,910.507446 1043.827148,928.741089 
	C1041.884644,932.808044 1039.890625,935.101624 1034.995361,934.502930 
	C1030.791016,933.988770 1026.474121,934.396301 1021.450806,934.396301 
	C1034.794067,907.417603 1047.742188,881.237976 1060.841187,854.709717 
z"/>
<path fill="#F7F6F7" opacity="1.000000" stroke="none" 
	d="
M228.134094,872.826294 
	C230.935074,876.312561 233.530136,879.506653 236.190369,882.781006 
	C244.486908,872.160095 252.396561,861.870972 260.553894,851.782104 
	C261.677582,850.392334 263.994690,849.359497 265.820282,849.257996 
	C271.575409,848.938049 277.359558,849.140015 284.302734,849.140015 
	C277.206909,858.074890 270.740326,866.215454 264.276154,874.357849 
	C261.793976,877.484436 259.697693,881.038818 256.770264,883.668823 
	C245.884430,893.448914 243.098434,905.675293 244.694473,919.623169 
	C245.219849,924.214478 244.777206,928.916565 244.777206,933.931274 
	C239.026306,933.931274 233.616165,933.931274 227.519394,933.931274 
	C227.519394,924.364685 227.320572,914.764404 227.607605,905.178711 
	C227.740799,900.730469 226.449921,897.322571 223.645828,893.889526 
	C211.777740,879.358887 200.160507,864.623413 187.832596,849.187744 
	C195.197845,849.187744 201.744827,849.068604 208.279663,849.297363 
	C209.456818,849.338623 210.850647,850.599365 211.690796,851.657288 
	C217.172989,858.560913 222.530151,865.563782 228.134094,872.826294 
z"/>
<path fill="#0157F5" opacity="1.000000" stroke="none" 
	d="
M1135.647949,934.416260 
	C1134.576172,933.416809 1133.394287,932.439636 1133.392456,931.460205 
	C1133.340210,904.501099 1133.406860,877.541626 1133.470703,850.582336 
	C1133.471436,850.280151 1133.697021,849.978455 1133.944580,849.359131 
	C1139.384888,849.359131 1144.944336,849.359131 1150.947754,849.359131 
	C1150.947754,877.523315 1150.947754,905.563293 1150.947754,934.437622 
	C1145.898438,934.437622 1140.993042,934.437622 1135.647949,934.416260 
z"/>
<path fill="#F1F1F1" opacity="1.000000" stroke="none" 
	d="
M1003.633850,928.186157 
	C1000.487427,934.318787 994.780884,936.402405 989.407593,933.689453 
	C985.253418,931.592102 983.512451,924.973511 985.845093,920.146423 
	C988.017151,915.651611 993.551392,913.875183 998.664795,916.157593 
	C1003.843323,918.469055 1004.484924,922.874146 1003.633850,928.186157 
z"/>
<path fill="#0D0D0D" opacity="1.000000" stroke="none" 
	d="
M337.998779,865.440552 
	C343.311310,865.436646 348.126068,865.348206 352.936829,865.449768 
	C359.246796,865.583008 361.843231,868.148743 361.950104,874.106628 
	C362.061188,880.298767 359.418488,883.615601 353.216431,883.754761 
	C341.298553,884.022156 329.370453,883.832703 317.087097,883.832703 
	C317.087097,877.681213 317.087097,871.824585 317.087097,865.440552 
	C323.959747,865.440552 330.729492,865.440552 337.998779,865.440552 
z"/>
<path fill="#080807" opacity="1.000000" stroke="none" 
	d="
M344.992249,899.652222 
	C348.986694,899.634766 352.498505,899.403503 355.975372,899.655212 
	C361.093262,900.025696 363.820801,903.352417 363.818024,908.708069 
	C363.815155,914.256287 361.308807,917.719177 356.097107,917.830383 
	C343.158417,918.106323 330.209900,917.921143 316.996094,917.921143 
	C316.996094,911.797668 316.996094,906.070862 316.996094,899.654419 
	C326.292786,899.654419 335.393372,899.654419 344.992249,899.652222 
z"/>
<path fill="#080807" opacity="1.000000" stroke="none" 
	d="
M964.961426,871.329102 
	C965.169250,872.208740 965.353699,872.683655 965.418884,873.174316 
	C967.247314,886.947388 964.340088,890.292542 950.606323,890.275085 
	C940.986328,890.262878 931.366272,890.272827 921.510010,890.272827 
	C921.510010,881.853027 921.510010,873.938354 921.510010,865.789734 
	C933.742310,865.789734 945.706665,865.504028 957.635986,866.022888 
	C960.117920,866.130798 962.470337,869.217651 964.961426,871.329102 
z"/>
</svg>